<svg version="1.2" xmlns="http://www.w3.org/2000/svg" viewBox="0 0 836 277" width="836" height="277"><defs><clipPath clipPathUnits="userSpaceOnUse" id="cp1"><path d="m878.58 321.78h-993.58v-521.32h993.58z"/></clipPath><clipPath clipPathUnits="userSpaceOnUse" id="cp2"><path d="m-5011.75 2324.96h7256.05v-2573.94h-7256.05z"/></clipPath><clipPath clipPathUnits="userSpaceOnUse" id="cp3"><path d="m-5011.75 2324.96h7256.05v-2573.94h-7256.05z"/></clipPath></defs><style>.a{fill:#808284}.b{fill:#f47f25}</style><g clip-path="url(#cp1)"><g clip-path="url(#cp2)"><path class="a" d="m351.1 260.4v-123.5c0-44.1 28.2-73.8 67.5-73.8 43.6 0 69.3 33.6 69.3 73.2 0 37.5-30.1 66.5-64.5 66.5-13.4 0-26.3-2.8-38-9.5v-25.7c8.9 6.2 22.6 11.8 33.8 11.8 26.5 0 44.2-18.5 44.2-46.1 0-27.4-18.5-46.7-44.8-46.7-23.4 0-43 17.9-43 54.8v119z"/><path class="a" d="m616.7 65.9v78.2c0 35.3-24.6 58.7-57.3 58.7-32.6 0-57.2-23.4-57.2-58.7v-78.2h24.6v78.2c0 20.7 15 35.3 32.6 35.3 17.7 0 32.7-14.6 32.7-35.3v-78.2z"/></g><path class="a" d="m634 4.5h24.6v195.5h-24.6z"/><g clip-path="url(#cp3)"><path class="a" d="m674 176.6h68.7c11.5 0 16-4.5 16-12.9 0-24.6-84.7-15.1-84.7-61.5 0-23.7 16.5-36.3 45.8-36.3h57.9v23.5h-62.1c-12 0-15.6 3.4-15.9 11.7-0.3 23.2 84.6 13.4 84.6 61.5 0 25.4-17.8 37.4-41.6 37.4h-68.7z"/><path class="b" d="m68.2 40.9c0 7.8-6.3 14.1-14.1 14.1-7.8 0-14.2-6.3-14.2-14.1 0-7.9 6.4-14.2 14.2-14.2 7.8 0 14.1 6.3 14.1 14.2z"/><path class="b" d="m77.7 82.8c-6.1-16.4-11.1-20.9-24.3-20.8-11.5 0.1-17.7 5.4-22.9 20.1l-21.3 62.2c-2.6 6.7-2.6 16.6 7.5 18.7l0.7 0.1c9.1 0.8 12.7-3.6 15.7-9.8l19.7-56.8c1.3-3.4 2.5-0.2 2.5-0.3l22.8 57.8c6.4 14.4 13.2 18.8 22.5 18.9l1.7 0.1c9.8-0.3 16.1-4.4 21-16.9l25.6-80.6c1.8-5.7 3.2 0.3 3.2 0.2l0.1 0.3 26.8 89.9c4.2 14.3 11.3 19.2 20.3 20.2 12.6 0.4 20.6-4 25.6-20.8l32.8-116.5 0.1-0.5c1.3-3.9 2.2 0 2.2-0.1l0.2 0.6 38.4 133.1c5.7 16 12.5 20.7 22 20.7 12.2-0.6 19.1-5.1 20.5-6.1v-28.1c-1.4 1-10.8 6.9-15.2 7.4-2.6 0.4-2.9-1-3.9-3.9l-40.1-142c-3.4-9.7-11.4-18-23.4-17.8-9.7 0.2-19.3 6.5-23 19.4l-32.7 119.4c-1 2.9-1.8-0.1-1.8 0l-27.6-94.2c-4-14.2-11.1-20.6-22.5-20.6-10.4 0-18.4 6.1-23 20.2l-25.8 82.8c-1.3 3.4-2.6 0.1-2.6 0.2z"/><path class="a" d="m385.4 254.8h16.4c2.7 0 3.8-1.1 3.8-3.1 0-5.9-20.2-3.6-20.2-14.6 0-5.7 3.9-8.7 10.9-8.7h13.8v5.6h-14.8c-2.8 0-3.7 0.8-3.8 2.8-0.1 5.5 20.2 3.2 20.2 14.6 0 6.1-4.3 9-9.9 9h-16.4z"/><path class="a" d="m462.9 234h-11.5v16.8c0 3 1.4 4 4.4 4h7.1v5.6h-7.9c-6 0-9.5-4-9.5-10.4v-29.6h5.9v8h11.5z"/><path class="a" d="m495.3 228.4h5.6v3.6h0.1c2-3.1 4.7-4.3 8.7-4.3h1.3v5.6h-0.8c-5.7 0-9 3.5-9 12.1v15h-5.9z"/><path fill-rule="evenodd" class="a" d="m563.3 216.7c2.2 0 3.7 1.6 3.7 3.7 0 2.2-1.5 3.7-3.7 3.7-2.2 0-3.8-1.5-3.8-3.7 0-2.1 1.6-3.7 3.8-3.7zm-10.7 0c2.2 0 3.7 1.6 3.7 3.7 0 2.2-1.5 3.7-3.7 3.7-2.2 0-3.7-1.5-3.7-3.7 0-2.1 1.5-3.7 3.7-3.7zm5.3 11c8.9 0 16.6 6.8 16.6 16.7 0 9.8-7.7 16.6-16.6 16.6-8.8 0-16.6-6.8-16.6-16.6 0-9.9 7.8-16.7 16.6-16.7zm0 27.7c6.1 0 10.5-4.5 10.5-11 0-6.6-4.4-11.1-10.5-11.1-6 0-10.4 4.5-10.4 11.1 0 6.5 4.4 11 10.4 11z"/><path class="a" d="m608.3 260.4v-21.8c0-6 4.9-10.9 11.4-10.9 3.6 0 7.2 1.5 9.4 4.5 2.1-3 5.7-4.5 9.3-4.5 6.5 0 11.4 4.9 11.4 10.9v21.8h-5.8v-20.4c0-4.1-2.3-6.7-5.8-6.7-3.7 0-6.2 2.1-6.2 7.6v19.5h-5.9v-19.5c0-5.5-2.5-7.6-6.2-7.6-3.5 0-5.8 2.6-5.8 6.7v20.4z"/><path class="a" d="m694.1 249.9l-2.4-4.7 15.8-8.8c-2-2-3.7-3.1-7.3-3.1-6 0-10.4 4.5-10.4 11.1 0 6.5 4.4 11 10.4 11 7 0 9.6-4.1 10.8-10l5.9 0.8c-0.7 8.4-7.5 14.8-16.7 14.8-8.8 0-16.6-6.8-16.6-16.6 0-9.9 7.8-16.7 16.6-16.7 7.5 0 12.5 4 15.5 10.1z"/><path class="a" d="m750.2 260.4v-18.7c0-8.4 5.9-14 13.7-14 7.8 0 13.6 5.6 13.6 14v18.7h-5.8v-18.7c0-4.9-3.6-8.4-7.8-8.4-4.2 0-7.8 3.5-7.8 8.4v18.7z"/><path fill-rule="evenodd" class="a" d="m805.9 65.5c-11.7 0-21.9-8.8-21.9-21.5 0-12.7 10.2-21.5 21.9-21.5 11.7 0 21.9 8.8 21.9 21.5 0 12.7-10.2 21.5-21.9 21.5zm0-40.2c-10.2 0-18.6 8.4-18.6 18.7 0 10.3 8.4 18.6 18.6 18.6 10.4 0 18.7-8.3 18.7-18.6 0-10.3-8.3-18.7-18.7-18.7z"/><path fill-rule="evenodd" class="a" d="m809.6 45.6l7.2 11.3h-4.6l-6.7-11.1h-4.1v11.1h-4.3v-25.8h9.8c6.3 0 9.4 2.1 9.4 7.4 0 4.7-2.8 6.6-6.7 7.1zm-3.1-11h-5.1v7.7h5.3c3.7 0 5.3-1.2 5.3-4.1 0-2.5-1.8-3.6-5.5-3.6z"/></g></g></svg>