<svg version="1.2" xmlns="http://www.w3.org/2000/svg" viewBox="0 0 828 421" width="828" height="421"><defs><clipPath clipPathUnits="userSpaceOnUse" id="cp1"><path d="m876.58 322.78h-993.58v-521.32h993.58z"/></clipPath><clipPath clipPathUnits="userSpaceOnUse" id="cp2"><path d="m-5013.75 2325.96h7256.05v-2573.94h-7256.05z"/></clipPath><clipPath clipPathUnits="userSpaceOnUse" id="cp3"><path d="m-5013.75 2325.96h7256.05v-2573.94h-7256.05z"/></clipPath></defs><style>.a{fill:#808284}.b{fill:#f47f25}.c{fill:#7f8184}</style><g clip-path="url(#cp1)"><g clip-path="url(#cp2)"><path class="a" d="m349.1 261.4v-123.5c0-44.1 28.2-73.8 67.5-73.8 43.6 0 69.3 33.6 69.3 73.2 0 37.5-30.1 66.5-64.5 66.5-13.4 0-26.3-2.8-38-9.5v-25.7c8.9 6.2 22.6 11.8 33.8 11.8 26.5 0 44.2-18.5 44.2-46.1 0-27.4-18.5-46.7-44.8-46.7-23.4 0-43 17.9-43 54.8v119z"/><path class="a" d="m614.7 66.9v78.2c0 35.3-24.6 58.7-57.3 58.7-32.6 0-57.2-23.4-57.2-58.7v-78.2h24.6v78.2c0 20.7 15 35.3 32.6 35.3 17.7 0 32.7-14.6 32.7-35.3v-78.2z"/></g><path class="a" d="m632 5.5h24.6v195.5h-24.6z"/><g clip-path="url(#cp3)"><path class="a" d="m672 177.6h68.7c11.5 0 16-4.5 16-12.9 0-24.6-84.7-15.1-84.7-61.5 0-23.7 16.5-36.3 45.8-36.3h57.9v23.5h-62.1c-12 0-15.6 3.4-15.9 11.7-0.3 23.2 84.6 13.4 84.6 61.5 0 25.4-17.8 37.4-41.6 37.4h-68.7z"/><path class="b" d="m66.2 41.9c0 7.8-6.3 14.1-14.1 14.1-7.8 0-14.2-6.3-14.2-14.1 0-7.9 6.4-14.2 14.2-14.2 7.8 0 14.1 6.3 14.1 14.2z"/><path class="b" d="m75.7 83.8c-6.1-16.4-11.1-20.9-24.3-20.8-11.5 0.1-17.7 5.4-22.9 20.1l-21.3 62.2c-2.6 6.7-2.6 16.6 7.5 18.7l0.7 0.1c9.1 0.8 12.7-3.6 15.7-9.8l19.7-56.8c1.3-3.4 2.5-0.2 2.5-0.3l22.8 57.8c6.4 14.4 13.2 18.8 22.5 18.9l1.7 0.1c9.8-0.3 16.1-4.4 21-16.9l25.6-80.6c1.8-5.7 3.2 0.3 3.2 0.2l0.1 0.3 26.8 89.9c4.2 14.3 11.3 19.2 20.3 20.2 12.6 0.4 20.6-4 25.6-20.8l32.8-116.5 0.1-0.5c1.3-3.9 2.2 0 2.2-0.1l0.2 0.6 38.4 133.1c5.7 16 12.5 20.7 22 20.7 12.2-0.6 19.1-5.1 20.5-6.1v-28.1c-1.4 1-10.8 6.9-15.2 7.4-2.6 0.4-2.9-1-3.9-3.9l-40.1-142c-3.4-9.7-11.4-18-23.4-17.8-9.7 0.2-19.3 6.5-23 19.4l-32.7 119.4c-1 2.9-1.8-0.1-1.8 0l-27.6-94.2c-4-14.2-11.1-20.6-22.5-20.6-10.4 0-18.4 6.1-23 20.2l-25.8 82.8c-1.3 3.4-2.6 0.1-2.6 0.2z"/><path class="a" d="m383.4 255.8h16.4c2.7 0 3.8-1.1 3.8-3.1 0-5.9-20.2-3.6-20.2-14.6 0-5.7 3.9-8.7 10.9-8.7h13.8v5.6h-14.8c-2.8 0-3.7 0.8-3.8 2.8-0.1 5.5 20.2 3.2 20.2 14.6 0 6.1-4.3 9-9.9 9h-16.4z"/><path class="a" d="m460.9 235h-11.5v16.8c0 3 1.4 4 4.4 4h7.1v5.6h-7.9c-6 0-9.5-4-9.5-10.4v-29.6h5.9v8h11.5z"/><path class="a" d="m493.3 229.4h5.6v3.6h0.1c2-3.1 4.7-4.3 8.7-4.3h1.3v5.6h-0.8c-5.7 0-9 3.5-9 12.1v15h-5.9z"/><path fill-rule="evenodd" class="a" d="m561.3 217.7c2.2 0 3.7 1.6 3.7 3.7 0 2.2-1.5 3.7-3.7 3.7-2.2 0-3.8-1.5-3.8-3.7 0-2.1 1.6-3.7 3.8-3.7zm-10.7 0c2.2 0 3.7 1.6 3.7 3.7 0 2.2-1.5 3.7-3.7 3.7-2.2 0-3.7-1.5-3.7-3.7 0-2.1 1.5-3.7 3.7-3.7zm5.3 11c8.9 0 16.6 6.8 16.6 16.7 0 9.8-7.7 16.6-16.6 16.6-8.8 0-16.6-6.8-16.6-16.6 0-9.9 7.8-16.7 16.6-16.7zm0 27.7c6.1 0 10.5-4.5 10.5-11 0-6.6-4.4-11.1-10.5-11.1-6 0-10.4 4.5-10.4 11.1 0 6.5 4.4 11 10.4 11z"/><path class="a" d="m606.3 261.4v-21.8c0-6 4.9-10.9 11.4-10.9 3.6 0 7.2 1.5 9.4 4.5 2.1-3 5.7-4.5 9.3-4.5 6.5 0 11.4 4.9 11.4 10.9v21.8h-5.8v-20.4c0-4.1-2.3-6.7-5.8-6.7-3.7 0-6.2 2.1-6.2 7.6v19.5h-5.9v-19.5c0-5.5-2.5-7.6-6.2-7.6-3.5 0-5.8 2.6-5.8 6.7v20.4z"/><path class="a" d="m692.1 250.9l-2.4-4.7 15.8-8.8c-2-2-3.7-3.1-7.3-3.1-6 0-10.4 4.5-10.4 11.1 0 6.5 4.4 11 10.4 11 7 0 9.6-4.1 10.8-10l5.9 0.8c-0.7 8.4-7.5 14.8-16.7 14.8-8.8 0-16.6-6.8-16.6-16.6 0-9.9 7.8-16.7 16.6-16.7 7.5 0 12.5 4 15.5 10.1z"/><path class="a" d="m748.2 261.4v-18.7c0-8.4 5.9-14 13.7-14 7.8 0 13.6 5.6 13.6 14v18.7h-5.8v-18.7c0-4.9-3.6-8.4-7.8-8.4-4.2 0-7.8 3.5-7.8 8.4v18.7z"/><path fill-rule="evenodd" class="a" d="m803.9 66.5c-11.7 0-21.9-8.8-21.9-21.5 0-12.7 10.2-21.5 21.9-21.5 11.7 0 21.9 8.8 21.9 21.5 0 12.7-10.2 21.5-21.9 21.5zm0-40.2c-10.2 0-18.6 8.4-18.6 18.7 0 10.3 8.4 18.6 18.6 18.6 10.4 0 18.7-8.3 18.7-18.6 0-10.3-8.3-18.7-18.7-18.7z"/><path fill-rule="evenodd" class="a" d="m807.6 46.6l7.2 11.3h-4.6l-6.7-11.1h-4.1v11.1h-4.3v-25.8h9.8c6.3 0 9.4 2.1 9.4 7.4 0 4.7-2.8 6.6-6.7 7.1zm-3.1-11h-5.1v7.7h5.3c3.7 0 5.3-1.2 5.3-4.1 0-2.5-1.8-3.6-5.5-3.6z"/></g></g><path class="b" d="m19.6 362v-60.5h12.2l15.5 41.2 15.5-41.2h12.2v60.5h-8v-53.1l-15.6 41.5h-8.2l-15.6-41.5v53.1zm88.9-40.2q-6 0-9.5 4.7-3.5 4.7-3.5 12.8 0 8.2 3.4 12.9 3.5 4.7 9.6 4.7 5.9 0 9.4-4.7 3.5-4.7 3.5-12.9 0-8-3.5-12.7-3.5-4.8-9.4-4.8zm0-6.3q9.7 0 15.2 6.3 5.6 6.4 5.6 17.5 0 11.2-5.6 17.6-5.5 6.3-15.2 6.3-9.8 0-15.4-6.3-5.5-6.4-5.5-17.6 0-11.1 5.5-17.5 5.6-6.3 15.4-6.3zm70.9 19.1v27.4h-7.5v-27.2q0-6.4-2.5-9.6-2.5-3.2-7.5-3.2-6.1 0-9.5 3.8-3.5 3.9-3.5 10.5v25.7h-7.5v-45.4h7.5v7.1q2.6-4.1 6.3-6.2 3.6-2 8.3-2 7.9 0 11.9 4.9 4 4.8 4 14.2zm14.9 27.4v-45.4h7.4v45.4zm0-53.6v-9.5h7.5v9.5zm22.8 53.6v-63.1h7.5v37.3l22.2-19.6h9.5l-24 21.2 25 24.2h-9.7l-23-22.2v22.2zm74.9-22.8h-7.4q-9.1 0-12.6 2.1-3.4 2-3.4 7 0 4 2.6 6.3 2.6 2.3 7.1 2.3 6.2 0 9.9-4.3 3.8-4.5 3.8-11.8zm7.4-3v25.9h-7.4v-6.9q-2.6 4.1-6.4 6.1-3.8 1.9-9.3 1.9-7 0-11.1-3.9-4.1-3.9-4.1-10.5 0-7.6 5.1-11.5 5.2-3.9 15.3-3.9h10.5v-0.7q0-5.2-3.4-8-3.4-2.8-9.5-2.8-3.9 0-7.6 0.9-3.7 1-7.1 2.8v-6.9q4.1-1.5 8-2.3 3.8-0.8 7.5-0.8 9.8 0 14.7 5.1 4.8 5.1 4.8 15.5zm42.1 25.9v-60.5h12.2l15.4 41.1 15.6-41.1h12.2v60.5h-8v-53.2l-15.6 41.5h-8.2l-15.6-41.5v53.2zm71.2 0v-45.4h7.5v45.4zm0-53.7v-9.4h7.5v9.4zm22.9-4.6h7.5v12.9h15.4v5.8h-15.4v24.6q0 5.6 1.5 7.1 1.5 1.6 6.2 1.6h7.7v6.3h-7.7q-8.6 0-11.9-3.2-3.3-3.3-3.3-11.8v-24.6h-5.5v-5.8h5.5zm32.5 0h7.5v12.9h15.4v5.8h-15.4v24.6q0 5.5 1.5 7.1 1.6 1.6 6.2 1.6h7.7v6.2h-7.7q-8.6 0-11.9-3.2-3.3-3.2-3.3-11.7v-24.6h-5.4v-5.8h5.4zm71.5 33.7v3.6h-34.3q0.5 7.7 4.7 11.8 4.1 4 11.6 4 4.2 0 8.3-1.1 4-1 8-3.1v7q-4 1.7-8.2 2.6-4.3 0.9-8.6 0.9-10.9 0-17.2-6.3-6.3-6.3-6.3-17.1 0-11.2 6-17.7 6-6.5 16.2-6.5 9.2 0 14.5 5.9 5.3 5.8 5.3 16zm-34-2.2h26.6q-0.1-6.1-3.5-9.8-3.3-3.6-8.8-3.6-6.3 0-10 3.5-3.7 3.5-4.3 9.9zm72.5-19.3l0.1 7.6q-1.3-0.7-2.8-1-1.4-0.4-3.2-0.4-6.4 0-9.8 4.1-3.3 4.1-3.3 11.8v23.9h-7.5v-45.4h7.5v7.1q2.3-4.1 6.1-6.1 3.8-2 9.2-2 0.7 0 1.7 0.1 0.9 0.1 2 0.3zm44.2 18.6v27.4h-7.5v-27.1q0-6.5-2.5-9.7-2.5-3.2-7.5-3.2-6.1 0-9.6 3.9-3.5 3.8-3.5 10.5v25.6h-7.5v-63h7.5v24.7q2.7-4.1 6.3-6.1 3.7-2 8.4-2 7.8 0 11.8 4.8 4.1 4.8 4.1 14.2zm32.4-12.7q-6 0-9.5 4.7-3.4 4.6-3.4 12.8 0 8.1 3.4 12.8 3.5 4.7 9.5 4.7 6 0 9.5-4.7 3.5-4.7 3.5-12.8 0-8.1-3.5-12.8-3.5-4.7-9.5-4.7zm0-6.3q9.8 0 15.3 6.3 5.6 6.3 5.6 17.5 0 11.1-5.6 17.5-5.5 6.3-15.3 6.3-9.7 0-15.3-6.3-5.5-6.4-5.5-17.5 0-11.2 5.5-17.5 5.6-6.3 15.3-6.3zm49.1-16.6h7.1v6.2h-7.1q-4 0-5.6 1.6-1.6 1.6-1.6 5.8v4h12.3v5.8h-12.3v39.6h-7.5v-39.6h-7.1v-5.8h7.1v-3.1q0-7.6 3.6-11 3.5-3.5 11.1-3.5zm52.2 38.5v3.6h-34.3q0.5 7.7 4.6 11.8 4.2 4 11.6 4 4.3 0 8.3-1.1 4-1 8-3.1v7q-4 1.7-8.2 2.6-4.2 0.9-8.6 0.9-10.8 0-17.2-6.3-6.3-6.3-6.3-17.1 0-11.2 6-17.7 6-6.5 16.2-6.5 9.2 0 14.5 5.9 5.4 5.8 5.4 16zm-34.1-2.2h26.6q-0.1-6.1-3.4-9.8-3.4-3.6-8.9-3.6-6.2 0-10 3.5-3.7 3.5-4.3 9.9zm72.6-19.3v7.6q-1.3-0.7-2.8-1-1.4-0.4-3.2-0.4-6.3 0-9.7 4.1-3.4 4.1-3.4 11.8v23.9h-7.5v-45.4h7.5v7.1q2.4-4.1 6.1-6.1 3.8-2 9.2-2 0.8 0 1.7 0.1 0.9 0.1 2.1 0.3z"/><path class="c" d="m28.7 378.3h-6.1v13.4h6.1q3.4 0 5.2-1.8 1.9-1.7 1.9-5 0-3.2-1.9-4.9-1.8-1.7-5.2-1.7zm-10.9 31.7v-35.7h10.9q6 0 9.1 2.7 3.1 2.7 3.1 7.9 0 5.3-3.1 8-3.1 2.7-9.1 2.7h-6.1v14.4zm44-27.2l0.1 4.5q-0.8-0.4-1.7-0.6-0.8-0.2-1.9-0.2-3.7 0-5.7 2.4-2 2.4-2 7v14.1h-4.4v-26.8h4.4v4.2q1.4-2.5 3.6-3.6 2.2-1.2 5.4-1.2 0.5 0 1 0 0.6 0.1 1.2 0.2zm21.2 13.7h-4.3q-5.4 0-7.4 1.2-2.1 1.3-2.1 4.2 0 2.4 1.5 3.7 1.6 1.4 4.3 1.4 3.6 0 5.8-2.6 2.2-2.6 2.2-6.9zm4.4-1.8v15.3h-4.4v-4.1q-1.5 2.5-3.7 3.6-2.3 1.2-5.5 1.2-4.1 0-6.6-2.3-2.4-2.3-2.4-6.2 0-4.5 3-6.8 3.1-2.3 9.1-2.3h6.1v-0.5q0-3-2-4.7-2-1.6-5.6-1.6-2.3 0-4.4 0.5-2.2 0.6-4.2 1.7v-4.1q2.4-0.9 4.7-1.4 2.2-0.5 4.4-0.5 5.8 0 8.7 3.1 2.8 3 2.8 9.1zm28.4-10.5v4.1q-1.9-1-3.8-1.5-1.8-0.5-3.7-0.5-4.3 0-6.7 2.7-2.4 2.7-2.4 7.6 0 4.9 2.4 7.6 2.4 2.7 6.7 2.7 1.9 0 3.7-0.5 1.9-0.5 3.8-1.5v4.1q-1.8 0.8-3.8 1.2-2 0.5-4.2 0.5-6.1 0-9.6-3.8-3.6-3.8-3.6-10.3 0-6.5 3.6-10.3 3.6-3.8 9.9-3.8 2 0 3.9 0.5 2 0.4 3.8 1.2zm7.6-8.6h4.4v7.6h9.1v3.4h-9.1v14.6q0 3.2 0.9 4.2 0.9 0.9 3.7 0.9h4.5v3.7h-4.5q-5.1 0-7.1-1.9-1.9-1.9-1.9-6.9v-14.6h-3.3v-3.4h3.3zm19.3 34.4v-26.8h4.4v26.8zm0-31.7v-5.5h4.4v5.5zm13.5-2.7h4.4v7.6h9.1v3.4h-9.1v14.6q0 3.2 0.9 4.2 0.9 0.9 3.7 0.9h4.5v3.7h-4.5q-5.1 0-7.1-1.9-1.9-1.9-1.9-6.9v-14.6h-3.2v-3.4h3.2zm19.3 34.4v-26.8h4.4v26.8zm0-31.7v-5.5h4.4v5.5zm24 8q-3.5 0-5.6 2.8-2.1 2.7-2.1 7.5 0 4.8 2.1 7.6 2 2.8 5.6 2.8 3.5 0 5.6-2.8 2-2.8 2-7.6 0-4.7-2-7.5-2.1-2.8-5.6-2.8zm0-3.7q5.7 0 9 3.7 3.3 3.7 3.3 10.3 0 6.6-3.3 10.4-3.3 3.7-9 3.7-5.8 0-9-3.7-3.3-3.8-3.3-10.4 0-6.6 3.3-10.3 3.2-3.7 9-3.7zm41.9 11.2v16.2h-4.4v-16q0-3.8-1.5-5.7-1.5-1.9-4.5-1.9-3.5 0-5.6 2.3-2 2.2-2 6.2v15.1h-4.5v-26.8h4.5v4.2q1.5-2.5 3.7-3.6 2.1-1.2 4.9-1.2 4.6 0 7 2.8 2.4 2.9 2.4 8.4zm31.7 1.7v2.2h-20.3q0.3 4.5 2.8 6.9 2.4 2.4 6.8 2.4 2.5 0 4.9-0.7 2.4-0.6 4.7-1.8v4.1q-2.3 1-4.8 1.6-2.5 0.5-5.1 0.5-6.4 0-10.1-3.7-3.8-3.8-3.8-10.1 0-6.6 3.6-10.5 3.5-3.8 9.6-3.8 5.4 0 8.5 3.4 3.2 3.5 3.2 9.5zm-20.1-1.3h15.7q-0.1-3.6-2.1-5.8-1.9-2.1-5.2-2.1-3.7 0-5.9 2.1-2.2 2.1-2.5 5.8zm42.8-11.4v4.5q-0.7-0.4-1.6-0.6-0.9-0.2-1.9-0.2-3.8 0-5.8 2.4-1.9 2.4-1.9 7v14.1h-4.5v-26.8h4.5v4.2q1.3-2.5 3.6-3.6 2.2-1.2 5.4-1.2 0.4 0 1 0 0.5 0.1 1.2 0.2zm29.6-10h4.2v3.6h-4.2q-2.4 0-3.3 1-0.9 0.9-0.9 3.4v2.4h7.2v3.4h-7.2v23.4h-4.5v-23.4h-4.2v-3.4h4.2v-1.9q0-4.4 2.1-6.5 2.1-2 6.6-2zm7.4 26.6v-16.2h4.4v16.1q0 3.8 1.5 5.7 1.5 1.9 4.4 1.9 3.6 0 5.7-2.3 2.1-2.3 2.1-6.2v-15.2h4.4v26.8h-4.4v-4.1q-1.7 2.4-3.8 3.6-2.1 1.2-4.9 1.2-4.6 0-7-2.9-2.4-2.9-2.4-8.4zm11.1-16.8zm2.2-4.9v-4.8h4.8v4.8zm-9.3 0v-4.8h4.8v4.8zm43.1 5.1l0.1 4.5q-0.8-0.4-1.7-0.6-0.8-0.2-1.9-0.2-3.7 0-5.7 2.4-2 2.4-2 7v14.1h-4.4v-26.8h4.4v4.2q1.4-2.5 3.6-3.6 2.2-1.2 5.4-1.2 0.5 0 1 0 0.6 0.1 1.2 0.2zm20.4 27.2v-35.7h4.9v35.7zm35.1-21.7q1.7-2.9 4-4.3 2.2-1.4 5.4-1.4 4.1 0 6.4 2.9 2.3 2.9 2.3 8.3v16.2h-4.4v-16q0-3.9-1.4-5.8-1.4-1.8-4.2-1.8-3.4 0-5.4 2.3-2 2.2-2 6.2v15.1h-4.4v-16q0-3.9-1.3-5.8-1.4-1.8-4.3-1.8-3.3 0-5.3 2.3-2 2.3-2 6.2v15.1h-4.4v-26.8h4.4v4.2q1.5-2.5 3.6-3.7 2.1-1.1 5-1.1 2.9 0 5 1.4 2 1.5 3 4.3zm31.1 17.7v14.2h-4.4v-37h4.4v4.1q1.4-2.4 3.5-3.6 2.2-1.1 5.1-1.1 4.9 0 7.9 3.8 3.1 3.9 3.1 10.2 0 6.3-3.1 10.2-3 3.9-7.9 3.9-2.9 0-5.1-1.2-2.1-1.1-3.5-3.5zm15-9.4q0-4.8-2-7.6-2-2.8-5.5-2.8-3.5 0-5.5 2.8-2 2.8-2 7.6 0 4.9 2 7.7 2 2.7 5.5 2.7 3.5 0 5.5-2.7 2-2.8 2-7.7zm11.4 2.8v-16.2h4.4v16.1q0 3.8 1.5 5.7 1.5 1.9 4.5 1.9 3.5 0 5.6-2.3 2.1-2.3 2.1-6.2v-15.2h4.4v26.8h-4.4v-4.1q-1.6 2.4-3.8 3.6-2.1 1.2-4.9 1.2-4.6 0-7-2.9-2.4-2.9-2.4-8.4zm11.1-16.8zm20.4 27.4v-37.2h4.4v37.2zm30.7-26v4.2q-1.8-1-3.8-1.5-2.1-0.5-4.2-0.5-3.3 0-4.9 1-1.7 1-1.7 3.1 0 1.5 1.2 2.4 1.2 0.8 4.7 1.6l1.5 0.4q4.7 1 6.7 2.8 2 1.8 2 5.1 0 3.7-3 5.9-2.9 2.2-8.1 2.2-2.2 0-4.5-0.4-2.3-0.4-4.9-1.3v-4.5q2.4 1.2 4.8 1.9 2.4 0.6 4.7 0.6 3.1 0 4.8-1 1.6-1.1 1.6-3.1 0-1.8-1.2-2.7-1.2-1-5.3-1.9l-1.5-0.3q-4.1-0.9-5.9-2.6-1.8-1.8-1.8-4.9 0-3.8 2.7-5.9 2.6-2 7.6-2 2.4 0 4.6 0.3 2.1 0.4 3.9 1.1zm6.3 14.5v-3.9h12.8v3.9zm41.6-23.1v4.8q-2.8-1.4-5.2-2-2.5-0.6-4.7-0.6-4 0-6.1 1.5-2.2 1.5-2.2 4.3 0 2.4 1.4 3.6 1.5 1.2 5.4 2l3 0.6q5.4 1 7.9 3.6 2.6 2.6 2.6 6.9 0 5.2-3.5 7.9-3.5 2.7-10.2 2.7-2.5 0-5.4-0.6-2.8-0.6-5.9-1.7v-5q3 1.7 5.8 2.5 2.8 0.9 5.5 0.9 4.2 0 6.4-1.7 2.3-1.6 2.3-4.6 0-2.6-1.7-4.1-1.6-1.5-5.3-2.2l-2.9-0.6q-5.4-1.1-7.8-3.4-2.4-2.3-2.4-6.4 0-4.7 3.3-7.4 3.3-2.8 9.2-2.8 2.5 0 5.1 0.5 2.6 0.4 5.4 1.3zm9.4 0.2h4.4v7.6h9.1v3.4h-9.1v14.6q0 3.2 0.9 4.2 0.9 0.9 3.7 0.9h4.5v3.7h-4.5q-5.1 0-7.1-1.9-1.9-1.9-1.9-6.9v-14.6h-3.2v-3.4h3.2zm34.8 7.2v4.5q-0.7-0.4-1.6-0.6-0.9-0.2-1.9-0.2-3.8 0-5.8 2.4-2 2.4-2 7v14.1h-4.4v-26.8h4.4v4.2q1.4-2.5 3.6-3.6 2.3-1.2 5.4-1.2 0.5 0 1.1 0 0.5 0.1 1.2 0.2zm13.9 3.5q-3.5 0-5.6 2.8-2 2.7-2 7.5 0 4.8 2 7.6 2.1 2.8 5.6 2.8 3.5 0 5.6-2.8 2.1-2.8 2.1-7.6 0-4.7-2.1-7.5-2.1-2.8-5.6-2.8zm0-3.7q5.8 0 9 3.7 3.3 3.7 3.3 10.3 0 6.6-3.3 10.4-3.2 3.7-9 3.7-5.7 0-9-3.7-3.3-3.8-3.3-10.4 0-6.6 3.3-10.3 3.3-3.7 9-3.7zm2.3-4.9v-4.8h4.8v4.8zm-9.3 0v-4.8h4.8v4.8zm47.6 10.7q1.6-3 3.9-4.4 2.3-1.4 5.4-1.4 4.2 0 6.5 2.9 2.3 2.9 2.3 8.3v16.2h-4.4v-16q0-3.9-1.4-5.7-1.4-1.9-4.2-1.9-3.4 0-5.4 2.3-2 2.2-2 6.2v15.1h-4.4v-16q0-3.9-1.4-5.7-1.3-1.9-4.2-1.9-3.3 0-5.3 2.3-2 2.3-2 6.2v15.1h-4.4v-26.8h4.4v4.2q1.5-2.5 3.6-3.7 2.1-1.1 5-1.1 2.9 0 5 1.4 2 1.5 3 4.4zm49.8 7.1v2.2h-20.3q0.3 4.5 2.8 6.9 2.4 2.4 6.8 2.4 2.5 0 4.9-0.7 2.4-0.6 4.8-1.8v4.1q-2.4 1-4.9 1.6-2.5 0.5-5.1 0.5-6.4 0-10.1-3.7-3.8-3.8-3.8-10.1 0-6.6 3.6-10.5 3.6-3.8 9.6-3.8 5.4 0 8.5 3.5 3.2 3.4 3.2 9.4zm-20.1-1.3h15.7q-0.1-3.6-2.1-5.8-1.9-2.1-5.2-2.1-3.7 0-5.9 2.1-2.2 2.1-2.5 5.8zm49.6-0.4v16.2h-4.4v-16q0-3.8-1.5-5.7-1.5-1.9-4.5-1.9-3.5 0-5.6 2.3-2 2.2-2 6.2v15.1h-4.5v-26.8h4.5v4.2q1.5-2.4 3.7-3.6 2.1-1.2 4.9-1.2 4.6 0 7 2.8 2.4 2.9 2.4 8.4z"/></svg>