<svg version="1.2" xmlns="http://www.w3.org/2000/svg" viewBox="0 0 1074 731" width="1074" height="731"><defs><clipPath clipPathUnits="userSpaceOnUse" id="cp1"><path d="m993.58 451.78h-993.58v-521.32h993.58z"/></clipPath><clipPath clipPathUnits="userSpaceOnUse" id="cp2"><path d="m-4896.75 2454.96h7256.05v-2573.94h-7256.05z"/></clipPath><clipPath clipPathUnits="userSpaceOnUse" id="cp3"><path d="m-4896.75 2454.96h7256.05v-2573.94h-7256.05z"/></clipPath></defs><style>.a{fill:#808284}.b{fill:#f47f25}.c{fill:#7f8184}</style><g clip-path="url(#cp1)"><g clip-path="url(#cp2)"><path class="a" d="m466.1 390.4v-123.5c0-44.1 28.2-73.8 67.5-73.8 43.6 0 69.3 33.6 69.3 73.2 0 37.5-30.1 66.5-64.5 66.5-13.4 0-26.3-2.8-38-9.5v-25.7c8.9 6.2 22.6 11.8 33.8 11.8 26.5 0 44.2-18.5 44.2-46.1 0-27.4-18.5-46.7-44.8-46.7-23.4 0-43 17.9-43 54.8v119z"/><path class="a" d="m731.7 195.9v78.2c0 35.3-24.6 58.7-57.3 58.7-32.6 0-57.2-23.4-57.2-58.7v-78.2h24.6v78.2c0 20.7 15 35.3 32.6 35.3 17.7 0 32.7-14.6 32.7-35.3v-78.2z"/></g><path class="a" d="m749 134.5h24.6v195.5h-24.6z"/><g clip-path="url(#cp3)"><path class="a" d="m789 306.6h68.7c11.5 0 16-4.5 16-12.9 0-24.6-84.7-15.1-84.7-61.5 0-23.7 16.5-36.3 45.8-36.3h57.9v23.5h-62.1c-12 0-15.6 3.4-15.9 11.7-0.3 23.2 84.6 13.4 84.6 61.5 0 25.4-17.8 37.4-41.6 37.4h-68.7z"/><path class="b" d="m183.2 170.9c0 7.8-6.3 14.1-14.1 14.1-7.8 0-14.2-6.3-14.2-14.1 0-7.9 6.4-14.2 14.2-14.2 7.8 0 14.1 6.3 14.1 14.2z"/><path class="b" d="m192.7 212.8c-6.1-16.4-11.1-20.9-24.3-20.8-11.5 0.1-17.7 5.4-22.9 20.1l-21.3 62.2c-2.6 6.7-2.6 16.6 7.5 18.7l0.7 0.1c9.1 0.8 12.7-3.6 15.7-9.8l19.7-56.8c1.3-3.4 2.5-0.2 2.5-0.3l22.8 57.8c6.4 14.4 13.2 18.8 22.5 18.9l1.7 0.1c9.8-0.3 16.1-4.4 21-16.9l25.6-80.6c1.8-5.7 3.2 0.3 3.2 0.2l0.1 0.3 26.8 89.9c4.2 14.3 11.3 19.2 20.3 20.2 12.6 0.4 20.6-4 25.6-20.8l32.8-116.5 0.1-0.5c1.3-3.9 2.2 0 2.2-0.1l0.2 0.6 38.4 133.1c5.7 16 12.5 20.7 22 20.7 12.2-0.6 19.1-5.1 20.5-6.1v-28.1c-1.4 1-10.8 6.9-15.2 7.4-2.6 0.4-2.9-1-3.9-3.9l-40.1-142c-3.4-9.7-11.4-18-23.4-17.8-9.7 0.2-19.3 6.5-23 19.4l-32.7 119.4c-1 2.9-1.8-0.1-1.8 0l-27.6-94.2c-4-14.2-11.1-20.6-22.5-20.6-10.4 0-18.4 6.1-23 20.2l-25.8 82.8c-1.3 3.4-2.6 0.1-2.6 0.2z"/><path class="a" d="m500.4 384.8h16.4c2.7 0 3.8-1.1 3.8-3.1 0-5.9-20.2-3.6-20.2-14.6 0-5.7 3.9-8.7 10.9-8.7h13.8v5.6h-14.8c-2.8 0-3.7 0.8-3.8 2.8-0.1 5.5 20.2 3.2 20.2 14.6 0 6.1-4.3 9-9.9 9h-16.4z"/><path class="a" d="m577.9 364h-11.5v16.8c0 3 1.4 4 4.4 4h7.1v5.6h-7.9c-6 0-9.5-4-9.5-10.4v-29.6h5.9v8h11.5z"/><path class="a" d="m610.3 358.4h5.6v3.6h0.1c2-3.1 4.7-4.3 8.7-4.3h1.3v5.6h-0.8c-5.7 0-9 3.5-9 12.1v15h-5.9z"/><path fill-rule="evenodd" class="a" d="m678.3 346.7c2.2 0 3.7 1.6 3.7 3.7 0 2.2-1.5 3.7-3.7 3.7-2.2 0-3.8-1.5-3.8-3.7 0-2.1 1.6-3.7 3.8-3.7zm-10.7 0c2.2 0 3.7 1.6 3.7 3.7 0 2.2-1.5 3.7-3.7 3.7-2.2 0-3.7-1.5-3.7-3.7 0-2.1 1.5-3.7 3.7-3.7zm5.3 11c8.9 0 16.6 6.8 16.6 16.7 0 9.8-7.7 16.6-16.6 16.6-8.8 0-16.6-6.8-16.6-16.6 0-9.9 7.8-16.7 16.6-16.7zm0 27.7c6.1 0 10.5-4.5 10.5-11 0-6.6-4.4-11.1-10.5-11.1-6 0-10.4 4.5-10.4 11.1 0 6.5 4.4 11 10.4 11z"/><path class="a" d="m723.3 390.4v-21.8c0-6 4.9-10.9 11.4-10.9 3.6 0 7.2 1.5 9.4 4.5 2.1-3 5.7-4.5 9.3-4.5 6.5 0 11.4 4.9 11.4 10.9v21.8h-5.8v-20.4c0-4.1-2.3-6.7-5.8-6.7-3.7 0-6.2 2.1-6.2 7.6v19.5h-5.9v-19.5c0-5.5-2.5-7.6-6.2-7.6-3.5 0-5.8 2.6-5.8 6.7v20.4z"/><path class="a" d="m809.1 379.9l-2.4-4.7 15.8-8.8c-2-2-3.7-3.1-7.3-3.1-6 0-10.4 4.5-10.4 11.1 0 6.5 4.4 11 10.4 11 7 0 9.6-4.1 10.8-10l5.9 0.8c-0.7 8.4-7.5 14.8-16.7 14.8-8.8 0-16.6-6.8-16.6-16.6 0-9.9 7.8-16.7 16.6-16.7 7.5 0 12.5 4 15.5 10.1z"/><path class="a" d="m865.2 390.4v-18.7c0-8.4 5.9-14 13.7-14 7.8 0 13.6 5.6 13.6 14v18.7h-5.8v-18.7c0-4.9-3.6-8.4-7.8-8.4-4.2 0-7.8 3.5-7.8 8.4v18.7z"/><path fill-rule="evenodd" class="a" d="m920.9 195.5c-11.7 0-21.9-8.8-21.9-21.5 0-12.7 10.2-21.5 21.9-21.5 11.7 0 21.9 8.8 21.9 21.5 0 12.7-10.2 21.5-21.9 21.5zm0-40.2c-10.2 0-18.6 8.4-18.6 18.7 0 10.3 8.4 18.6 18.6 18.6 10.4 0 18.7-8.3 18.7-18.6 0-10.3-8.3-18.7-18.7-18.7z"/><path fill-rule="evenodd" class="a" d="m924.6 175.6l7.2 11.3h-4.6l-6.7-11.1h-4.1v11.1h-4.3v-25.8h9.8c6.3 0 9.4 2.1 9.4 7.4 0 4.7-2.8 6.6-6.7 7.1zm-3.1-11h-5.1v7.7h5.3c3.7 0 5.3-1.2 5.3-4.1 0-2.5-1.8-3.6-5.5-3.6z"/></g></g><path class="b" d="m190.3 478.7v60.3h-8v-52l-16.8 35.4h-4.7l-16.7-35.4v52h-7.5v-60.3h10.9l16.1 33.6 15.6-33.6zm54.2 37.7q0 11-5.7 17.5-5.7 6.4-15.2 6.4-9.6 0-15.3-6.4-5.6-6.5-5.6-17.5 0-11.1 5.6-17.5 5.7-6.4 15.3-6.4 9.5 0 15.2 6.4 5.7 6.4 5.7 17.5zm-7.9 0q0-8.8-3.4-13.1-3.5-4.3-9.6-4.3-6.2 0-9.6 4.3-3.4 4.3-3.4 13.1 0 8.5 3.4 12.9 3.5 4.4 9.6 4.4 6.1 0 9.5-4.3 3.5-4.4 3.5-13zm57.5-6.8v29.4h-7.6v-25.8q0-3.1-0.4-5.8-0.3-2.8-1.3-4.3-1-1.7-2.9-2.5-1.9-0.9-5-0.9-3.1 0-6.5 1.6-3.4 1.5-6.5 3.9v33.8h-7.6v-45.3h7.6v5.1q3.6-3 7.4-4.7 3.8-1.6 7.8-1.6 7.3 0 11.2 4.4 3.8 4.4 3.8 12.7zm22.9-31.4v8h-8.6v-8zm-0.5 15.5v45.3h-7.6v-45.3zm33.6 20.9l22.6 24.4h-10.1l-18.1-19.8-5 4.7v15.1h-7.6v-63.1h7.6v40.5l22-22.7h9.6zm65.8-6.3v30.7h-7.6v-4.8q-1 0.7-2.7 1.9-1.7 1.2-3.4 2-1.9 0.9-4.3 1.5-2.5 0.6-5.8 0.6-6.2 0-10.4-4-4.3-4.1-4.3-10.3 0-5.2 2.2-8.4 2.3-3.2 6.3-5 4.2-1.8 10-2.4 5.8-0.7 12.4-1v-1.2q0-2.6-0.9-4.3-0.9-1.7-2.6-2.7-1.6-0.9-3.9-1.2-2.3-0.3-4.7-0.3-3 0-6.7 0.8-3.7 0.7-7.6 2.2h-0.5v-7.7q2.3-0.6 6.5-1.3 4.2-0.8 8.3-0.8 4.8 0 8.3 0.8 3.6 0.8 6.2 2.7 2.5 1.9 3.9 4.8 1.3 3 1.3 7.4zm-7.6 19.5v-12.6q-3.5 0.2-8.2 0.6-4.7 0.5-7.5 1.2-3.2 1-5.3 2.9-2 2-2 5.4 0 3.9 2.4 5.9 2.3 2 7.1 2 4 0 7.4-1.6 3.3-1.6 6.1-3.8zm105.8-49.2v60.4h-8v-52l-16.8 35.4h-4.8l-16.6-35.4v52h-7.5v-60.4h10.9l16.1 33.6 15.6-33.6zm23.7-0.4v7.9h-8.6v-7.9zm-0.4 15.5v45.3h-7.7v-45.3zm38.6 38v6.9q-2.1 0.6-4.7 0.9-2.5 0.4-4.5 0.4-6.9 0-10.5-3.7-3.6-3.8-3.6-12v-24.1h-5.2v-6.4h5.2v-13h7.6v13h15.7v6.4h-15.7v20.7q0 3.5 0.2 5.5 0.1 2 1.1 3.8 0.9 1.6 2.4 2.4 1.6 0.7 4.8 0.7 1.9 0 3.9-0.5 2-0.6 2.9-1zm32.7 0v6.9q-2.1 0.6-4.7 0.9-2.5 0.4-4.5 0.4-6.9 0-10.5-3.7-3.6-3.8-3.6-12v-24.1h-5.2v-6.4h5.2v-13h7.6v13h15.7v6.4h-15.7v20.7q0 3.5 0.2 5.5 0.1 2 1.1 3.8 0.9 1.6 2.4 2.4 1.6 0.7 4.8 0.7 1.9 0 3.9-0.5 2-0.6 2.9-1zm47.1-18.7v4.1h-33.3q0 4.2 1.2 7.3 1.3 3.1 3.5 5.1 2.1 1.9 4.9 2.9 3 1 6.4 1 4.7 0 9.3-1.8 4.7-1.9 6.7-3.7h0.4v8.3q-3.8 1.7-7.8 2.7-4.1 1.1-8.5 1.1-11.2 0-17.6-6-6.3-6.2-6.3-17.4 0-11.1 6.1-17.6 6-6.5 15.9-6.5 9.2 0 14.1 5.3 5 5.4 5 15.2zm-33.3-1.7h25.9q0-6-3-9.3-3-3.3-9.1-3.3-6.1 0-9.7 3.7-3.7 3.6-4.1 8.9zm73.1-17.1v7.8h-0.4q-1.7-0.4-3.3-0.5-1.6-0.2-3.8-0.2-3.5 0-6.8 1.5-3.3 1.6-6.3 4v32.2h-7.6v-45.3h7.6v6.7q4.5-3.6 8-5.1 3.5-1.6 7.1-1.6 1.9 0 2.8 0.1 0.9 0.1 2.7 0.4zm45 15.4v29.4h-7.6v-25.8q0-3.1-0.3-5.8-0.4-2.8-1.4-4.3-1-1.7-2.9-2.5-1.9-0.9-4.9-0.9-3.2 0-6.6 1.6-3.4 1.5-6.5 3.9v33.8h-7.6v-63.1h7.6v22.8q3.6-2.9 7.4-4.6 3.8-1.6 7.8-1.6 7.3 0 11.2 4.4 3.8 4.4 3.8 12.7zm53.3 6.8q0 11-5.7 17.4-5.7 6.4-15.2 6.4-9.6 0-15.3-6.4-5.6-6.4-5.6-17.4 0-11.1 5.6-17.5 5.7-6.4 15.3-6.4 9.5 0 15.2 6.4 5.7 6.4 5.7 17.5zm-7.9 0q0-8.8-3.4-13.1-3.5-4.3-9.6-4.3-6.2 0-9.6 4.3-3.4 4.3-3.4 13.1 0 8.5 3.4 12.9 3.5 4.4 9.6 4.4 6.1 0 9.5-4.4 3.5-4.3 3.5-12.9zm44-40.1v7h-0.4q-1.2-0.4-3.2-0.7-2.1-0.4-3.6-0.4-4.9 0-7.1 2.2-2.2 2.1-2.2 7.8v1.5h13.7v6.4h-13.5v38.9h-7.6v-38.9h-5.2v-6.4h5.2v-1.5q0-8 4-12.3 4-4.4 11.6-4.4 2.5 0 4.6 0.3 2 0.2 3.7 0.5zm42.8 36.7v4.1h-33.4q0 4.2 1.3 7.3 1.2 3.1 3.4 5.1 2.1 1.9 5 2.9 2.9 1 6.4 1 4.6 0 9.3-1.8 4.7-1.9 6.7-3.7h0.4v8.3q-3.9 1.7-7.9 2.7-4 1.1-8.4 1.1-11.3 0-17.6-6-6.3-6.2-6.3-17.4 0-11.1 6-17.6 6.1-6.5 16-6.5 9.1 0 14.1 5.3 5 5.4 5 15.2zm-33.4-1.7h25.9q0-6-3-9.3-3-3.3-9-3.3-6.2 0-9.8 3.7-3.6 3.6-4.1 8.9zm73.2-17.1v7.8h-0.5q-1.7-0.4-3.3-0.5-1.6-0.2-3.7-0.2-3.6 0-6.9 1.5-3.2 1.6-6.3 4v32.2h-7.6v-45.3h7.6v6.7q4.6-3.6 8-5.1 3.5-1.6 7.1-1.6 2 0 2.9 0.1 0.9 0.1 2.7 0.4z"/><path class="c" d="m158.1 580.1q0 2.4-0.8 4.4-0.9 2.1-2.3 3.5-1.9 1.9-4.4 2.8-2.5 0.9-6.3 0.9h-4.8v13.3h-4.7v-35.6h9.7q3.2 0 5.4 0.5 2.2 0.6 3.9 1.7 2.1 1.4 3.2 3.4 1.1 2 1.1 5.1zm-4.9 0.2q0-1.9-0.7-3.2-0.6-1.4-1.9-2.3-1.2-0.7-2.7-1-1.4-0.4-3.7-0.4h-4.7v14.3h4q2.9 0 4.7-0.5 1.8-0.6 2.9-1.7 1.1-1.1 1.6-2.4 0.5-1.3 0.5-2.8zm27.5-1.7v4.6h-0.3q-1-0.3-2-0.4-0.9-0.1-2.2-0.1-2.1 0-4 1-1.9 0.9-3.7 2.3v19h-4.5v-26.7h4.5v3.9q2.7-2.1 4.7-3 2-0.9 4.2-0.9 1.1 0 1.7 0 0.5 0.1 1.6 0.3zm24.1 8.3v18.1h-4.5v-2.8q-0.6 0.4-1.6 1.1-1 0.7-2 1.1-1.1 0.6-2.6 1-1.4 0.3-3.4 0.3-3.6 0-6.1-2.4-2.5-2.3-2.5-6.1 0-3 1.3-4.9 1.3-1.8 3.7-2.9 2.5-1.1 5.9-1.5 3.4-0.4 7.3-0.6v-0.7q0-1.5-0.5-2.5-0.6-1-1.6-1.6-0.9-0.5-2.3-0.7-1.3-0.2-2.8-0.2-1.7 0-3.9 0.5-2.2 0.4-4.5 1.3h-0.2v-4.6q1.3-0.3 3.8-0.7 2.4-0.5 4.9-0.5 2.8 0 4.9 0.5 2.1 0.5 3.6 1.6 1.5 1.1 2.3 2.8 0.8 1.8 0.8 4.4zm-4.5 11.5v-7.4q-2 0.1-4.8 0.3-2.8 0.3-4.4 0.7-2 0.6-3.2 1.8-1.2 1.1-1.2 3.1 0 2.3 1.4 3.5 1.4 1.2 4.3 1.2 2.3 0 4.3-1 1.9-0.9 3.6-2.2zm32.9 0v4.9q-2.2 1.1-4.3 1.7-2 0.6-4.2 0.6-2.9 0-5.4-0.8-2.4-0.9-4.1-2.6-1.7-1.7-2.7-4.4-1-2.6-1-6.1 0-6.6 3.6-10.3 3.6-3.7 9.6-3.7 2.2 0 4.4 0.6 2.3 0.6 4.1 1.6v5h-0.2q-2.1-1.6-4.3-2.5-2.2-0.8-4.2-0.8-3.9 0-6.1 2.5-2.2 2.6-2.2 7.6 0 4.8 2.2 7.4 2.1 2.6 6.1 2.6 1.3 0 2.7-0.4 1.4-0.3 2.6-0.9 1-0.5 1.8-1 0.9-0.6 1.4-1zm19.6 2.3v4.1q-1.2 0.3-2.8 0.5-1.4 0.2-2.6 0.2-4.1 0-6.2-2.2-2.2-2.2-2.2-7v-14.2h-3v-3.8h3v-7.7h4.5v7.7h9.3v3.8h-9.3v12.1q0 2.1 0.1 3.3 0.1 1.2 0.7 2.2 0.5 1 1.4 1.4 1 0.5 2.9 0.5 1.1 0 2.3-0.3 1.2-0.4 1.7-0.6zm10.2-31.6v4.7h-5v-4.7zm-0.3 9.2v26.7h-4.5v-26.7zm22.8 22.4v4.1q-1.3 0.3-2.8 0.5-1.5 0.2-2.7 0.2-4.1 0-6.2-2.2-2.1-2.2-2.1-7v-14.2h-3.1v-3.8h3.1v-7.7h4.5v7.7h9.3v3.8h-9.3v12.1q0 2.1 0.1 3.3 0.1 1.2 0.6 2.2 0.6 1 1.5 1.4 0.9 0.5 2.8 0.5 1.1 0 2.3-0.3 1.2-0.4 1.7-0.6zm10.3-31.6v4.7h-5.1v-4.7zm-0.3 9.2v26.7h-4.5v-26.7zm31.7 13.3q0 6.6-3.3 10.4-3.4 3.7-9 3.7-5.7 0-9-3.7-3.4-3.8-3.4-10.4 0-6.5 3.4-10.3 3.3-3.8 9-3.8 5.6 0 9 3.8 3.3 3.8 3.3 10.3zm-4.6 0q0-5.1-2.1-7.7-2-2.5-5.6-2.5-3.7 0-5.7 2.5-2 2.6-2 7.7 0 5.1 2 7.7 2.1 2.6 5.7 2.6 3.6 0 5.6-2.6 2.1-2.6 2.1-7.7zm33.9-3.9v17.3h-4.5v-15.2q0-1.9-0.2-3.5-0.2-1.6-0.8-2.5-0.6-1-1.7-1.5-1.1-0.5-2.9-0.5-1.9 0-3.9 0.9-2 0.9-3.8 2.3v20h-4.5v-26.7h4.5v2.9q2.1-1.7 4.3-2.7 2.3-1 4.6-1 4.4 0 6.6 2.6 2.3 2.6 2.3 7.6zm31.1 2v2.4h-19.7q0 2.5 0.7 4.3 0.7 1.8 2 3 1.3 1.1 3 1.7 1.7 0.6 3.8 0.6 2.7 0 5.4-1.1 2.8-1.1 4-2.1h0.2v4.9q-2.2 0.9-4.6 1.6-2.4 0.6-5 0.6-6.6 0-10.4-3.6-3.7-3.6-3.7-10.2 0-6.6 3.6-10.4 3.5-3.9 9.4-3.9 5.4 0 8.3 3.2 3 3.1 3 9zm-19.7-1h15.3q-0.1-3.6-1.8-5.5-1.8-2-5.4-2-3.6 0-5.7 2.2-2.2 2.1-2.4 5.3zm43.1-10.1v4.6h-0.2q-1-0.3-2-0.4-0.9-0.1-2.2-0.1-2.1 0-4 1-1.9 0.9-3.7 2.3v19h-4.5v-26.7h4.5v3.9q2.6-2.1 4.7-3 2-0.9 4.2-0.9 1.1 0 1.7 0 0.5 0.1 1.5 0.3zm35.9-10.6v4.1h-0.3q-0.7-0.2-1.9-0.4-1.2-0.2-2.1-0.2-2.9 0-4.2 1.2-1.3 1.3-1.3 4.7v0.9h8.1v3.8h-8v22.9h-4.5v-22.9h-3v-3.8h3v-0.9q0-4.8 2.4-7.3 2.4-2.6 6.9-2.6 1.5 0 2.7 0.2 1.2 0.1 2.2 0.3zm25 10.3v26.7h-4.5v-3q-2.3 1.8-4.4 2.8-2 0.9-4.6 0.9-4.2 0-6.5-2.5-2.4-2.6-2.4-7.6v-17.3h4.5v15.2q0 2 0.2 3.5 0.2 1.4 0.8 2.4 0.7 1.1 1.7 1.6 1 0.5 3 0.5 1.8 0 3.8-1 2.1-0.9 3.9-2.3v-19.9zm-3.7-9.2v4.7h-4.8v-4.7zm-9.9 0v4.7h-4.7v-4.7zm39.1 9.5v4.6h-0.2q-1-0.3-2-0.4-0.9-0.1-2.2-0.1-2.1 0-4 1-2 0.9-3.8 2.3v19h-4.5v-26.7h4.5v3.9q2.7-2.1 4.7-3 2.1-0.9 4.2-0.9 1.2 0 1.7 0 0.5 0.1 1.6 0.3zm34.4 22.8v3.6h-14.1v-3.6h4.7v-28.4h-4.7v-3.6h14.1v3.6h-4.7v28.4zm46.7-13.7v17.3h-4.5v-15.2q0-1.7-0.1-3.3-0.2-1.6-0.7-2.6-0.5-1-1.6-1.6-1-0.5-2.9-0.5-1.9 0-3.8 1-1.9 0.9-3.8 2.4 0.1 0.5 0.1 1.3 0.1 0.7 0.1 1.4v17.1h-4.5v-15.2q0-1.8-0.2-3.4-0.1-1.6-0.6-2.5-0.6-1.1-1.6-1.6-1.1-0.5-3-0.5-1.8 0-3.7 0.9-1.8 0.9-3.7 2.3v20h-4.5v-26.7h4.5v2.9q2.1-1.7 4.2-2.7 2.1-1 4.5-1 2.7 0 4.6 1.2 1.9 1.1 2.8 3.2 2.8-2.3 5-3.3 2.3-1.1 4.8-1.1 4.4 0 6.5 2.7 2.1 2.7 2.1 7.5zm32.2 3.6q0 3.3-0.9 6-1 2.7-2.7 4.5-1.5 1.8-3.7 2.8-2.1 0.9-4.5 0.9-2.1 0-3.8-0.4-1.7-0.5-3.4-1.4v11.2h-4.5v-36.6h4.5v2.8q1.8-1.5 4-2.5 2.2-1.1 4.8-1.1 4.8 0 7.5 3.7 2.7 3.6 2.7 10.1zm-4.6 0.1q0-4.8-1.7-7.2-1.6-2.4-5.1-2.4-1.9 0-3.9 0.9-1.9 0.8-3.7 2.2v15.1q1.9 0.9 3.3 1.2 1.3 0.3 3.1 0.3 3.7 0 5.8-2.6 2.2-2.5 2.2-7.5zm33.8-13.1v26.7h-4.5v-3q-2.3 1.8-4.4 2.8-2.1 0.9-4.6 0.9-4.2 0-6.5-2.5-2.4-2.6-2.4-7.6v-17.3h4.5v15.2q0 2 0.2 3.5 0.2 1.4 0.8 2.4 0.7 1.1 1.7 1.6 1 0.5 3 0.5 1.7 0 3.8-1 2.1-0.9 3.9-2.3v-19.9zm13.4-10.5v37.2h-4.5v-37.2zm28 29.5q0 3.7-3.1 6-3 2.3-8.2 2.3-3 0-5.5-0.6-2.5-0.8-4.1-1.6v-5.1h0.2q2.1 1.7 4.7 2.6 2.7 0.9 5 0.9 3 0 4.7-0.9 1.7-1 1.7-3 0-1.6-0.9-2.4-1-0.8-3.5-1.4-1-0.2-2.6-0.5-1.5-0.3-2.8-0.6-3.5-1-5-2.8-1.4-1.8-1.4-4.4 0-1.7 0.7-3.1 0.7-1.5 2-2.6 1.4-1.2 3.4-1.8 2.1-0.7 4.7-0.7 2.4 0 4.8 0.6 2.5 0.6 4.1 1.4v4.8h-0.2q-1.8-1.2-4.2-2.1-2.5-0.9-4.9-0.9-2.4 0-4.1 1-1.7 0.9-1.7 2.8 0 1.6 1 2.5 1 0.8 3.3 1.3 1.2 0.3 2.7 0.6 1.6 0.3 2.6 0.5 3.2 0.8 4.9 2.5 1.7 1.8 1.7 4.7zm20.6-10.1v4.4h-15v-4.4zm33.9 7.6q0 2.1-1 4.1-1 2.1-2.7 3.5-1.9 1.5-4.5 2.4-2.5 0.8-6.1 0.8-3.9 0-6.9-0.7-3.1-0.7-6.3-2.1v-5.9h0.4q2.7 2.2 6.2 3.4 3.5 1.3 6.6 1.3 4.4 0 6.9-1.7 2.5-1.6 2.5-4.4 0-2.4-1.2-3.5-1.2-1.1-3.5-1.7-1.8-0.5-3.9-0.8-2.1-0.3-4.5-0.8-4.7-1-7-3.4-2.3-2.5-2.3-6.4 0-4.5 3.8-7.3 3.8-2.9 9.6-2.9 3.8 0 6.9 0.7 3.1 0.8 5.5 1.8v5.6h-0.3q-2-1.7-5.3-2.8-3.3-1.2-6.8-1.2-3.8 0-6.1 1.6-2.3 1.6-2.3 4.1 0 2.2 1.1 3.5 1.2 1.2 4.1 1.9 1.5 0.3 4.3 0.8 2.8 0.5 4.8 1 4 1 6 3.2 2 2.1 2 5.9zm21.1 5.9v4.1q-1.3 0.3-2.8 0.5-1.4 0.2-2.6 0.2-4.1 0-6.2-2.2-2.2-2.2-2.2-7v-14.2h-3v-3.8h3v-7.7h4.5v7.7h9.3v3.8h-9.3v12.1q0 2.1 0.1 3.3 0.1 1.2 0.7 2.2 0.5 1 1.4 1.4 1 0.5 2.9 0.5 1.1 0 2.2-0.3 1.2-0.4 1.8-0.6zm22.1-22.1v4.6h-0.3q-1-0.3-1.9-0.4-1-0.1-2.2-0.1-2.1 0-4.1 1-1.9 0.9-3.7 2.3v19h-4.5v-26.7h4.5v3.9q2.7-2.1 4.7-3 2.1-0.9 4.2-0.9 1.2 0 1.7 0 0.5 0.1 1.6 0.3zm27 13q0 6.6-3.4 10.4-3.3 3.7-8.9 3.7-5.7 0-9.1-3.7-3.3-3.8-3.3-10.4 0-6.5 3.3-10.3 3.4-3.8 9.1-3.8 5.6 0 8.9 3.8 3.4 3.8 3.4 10.3zm-4.7 0q0-5.1-2-7.7-2-2.5-5.6-2.5-3.7 0-5.7 2.5-2 2.6-2 7.7 0 5.1 2 7.7 2 2.6 5.7 2.6 3.6 0 5.6-2.6 2-2.6 2-7.7zm-0.3-22.5v4.7h-4.8v-4.7zm-9.9 0v4.7h-4.7v-4.7zm60.8 18.6v17.3h-4.5v-15.2q0-1.7-0.1-3.3-0.2-1.6-0.7-2.6-0.5-1-1.6-1.6-1-0.5-2.9-0.5-1.9 0-3.8 1-1.9 0.9-3.8 2.4 0.1 0.5 0.1 1.3 0.1 0.7 0.1 1.4v17.1h-4.5v-15.2q0-1.8-0.2-3.4-0.1-1.6-0.6-2.5-0.6-1.1-1.6-1.6-1-0.5-3-0.5-1.8 0-3.7 0.9-1.8 0.9-3.7 2.3v20h-4.5v-26.7h4.5v2.9q2.1-1.7 4.2-2.7 2.1-1 4.5-1 2.7 0 4.6 1.2 1.9 1.1 2.9 3.2 2.7-2.3 4.9-3.3 2.3-1.1 4.8-1.1 4.4 0 6.5 2.7 2.1 2.7 2.1 7.5zm31.1 2v2.4h-19.7q0 2.5 0.7 4.3 0.8 1.8 2 3 1.3 1.1 3 1.7 1.7 0.6 3.8 0.6 2.7 0 5.4-1.1 2.8-1.1 4-2.1h0.2v4.9q-2.2 0.9-4.6 1.6-2.4 0.6-5 0.6-6.6 0-10.4-3.6-3.7-3.6-3.7-10.2 0-6.6 3.6-10.4 3.6-3.9 9.4-3.9 5.4 0 8.3 3.2 3 3.1 3 9zm-19.7-1h15.3q0-3.6-1.8-5.5-1.8-2-5.3-2-3.7 0-5.8 2.2-2.1 2.1-2.4 5.3zm48.8-1v17.3h-4.5v-15.2q0-1.9-0.2-3.5-0.2-1.6-0.8-2.5-0.6-1-1.7-1.5-1.1-0.5-2.9-0.5-1.9 0-3.9 0.9-2 0.9-3.8 2.3v20h-4.5v-26.7h4.5v2.9q2.1-1.7 4.3-2.7 2.3-1 4.6-1 4.4 0 6.7 2.6 2.2 2.6 2.2 7.6z"/></svg>